<svg width="239" height="98" viewBox="0 0 239 98" fill="none" xmlns="http://www.w3.org/2000/svg">
<path d="M94.5059 21.9983V7.92387H95.9421V21.9983H94.5059ZM95.5318 18.0168L95.5513 16.1458L104.003 7.92387H105.913L95.5318 18.0168ZM104.208 21.9983L98.7512 14.2161L99.5084 12.8091L105.991 21.9983H104.203H104.208Z" fill="#113E53"/>
<path d="M108.346 10.132V8.42217H109.885V10.132H108.346ZM108.443 21.9983V11.9444H109.777V21.9983H108.443Z" fill="#113E53"/>
<path d="M116.196 21.9983L112.259 11.9444H113.676L117.247 21.3535H116.836L120.407 11.9444H121.805L117.862 21.9983H116.201H116.196Z" fill="#113E53"/>
<path d="M124.179 10.132V8.42217H125.718V10.132H124.179ZM124.281 21.9983V11.9444H125.615V21.9983H124.281Z" fill="#113E53"/>
<path d="M131.903 22.1986C131.302 22.1986 130.754 22.0667 130.261 21.8078C129.768 21.5489 129.377 21.1922 129.093 20.7428C128.805 20.2934 128.664 19.7853 128.664 19.2235C128.664 18.5395 128.839 17.9826 129.186 17.543C129.533 17.1082 129.973 16.7857 130.5 16.5757C131.028 16.3705 131.59 16.2435 132.191 16.2044L135.435 15.965V15.5644C135.435 14.988 135.332 14.4994 135.127 14.0988C134.922 13.6982 134.624 13.3905 134.233 13.1755C133.842 12.9606 133.388 12.8531 132.87 12.8531H132.767C132.083 12.8531 131.502 13.0192 131.023 13.3465C130.544 13.6738 130.271 14.1477 130.202 14.7632H128.869C128.922 13.8643 129.318 13.1364 130.056 12.5795C130.794 12.0226 131.712 11.7441 132.806 11.7441C133.671 11.7441 134.394 11.9151 134.99 12.2571C135.586 12.5991 136.031 13.0583 136.324 13.6347C136.617 14.2112 136.763 14.8561 136.763 15.5644V19.7853C136.763 20.2396 136.773 20.5962 136.783 20.8503C136.783 21.0359 136.788 21.2313 136.802 21.4219C136.817 21.6173 136.837 21.8078 136.861 21.9934H135.63C135.601 21.8713 135.586 21.7492 135.576 21.6221C135.566 21.4951 135.557 21.3632 135.547 21.2313C135.532 21.0848 135.527 20.9382 135.527 20.8014V20.3911C135.308 20.8894 134.863 21.3144 134.194 21.6661C133.524 22.0227 132.757 22.1986 131.898 22.1986H131.903ZM132.254 21.0945C132.733 21.0945 133.217 20.9724 133.71 20.7233C134.203 20.4741 134.614 20.1419 134.941 19.7169C135.268 19.2919 135.435 18.8473 135.435 18.3783V17.03L132.459 17.2303C131.722 17.284 131.126 17.4794 130.676 17.8116C130.222 18.1487 129.997 18.5884 129.997 19.1404C129.997 19.6925 130.193 20.1517 130.583 20.5278C130.974 20.904 131.463 21.0897 132.049 21.0897H132.254V21.0945Z" fill="#113E53"/>
<path d="M147.692 20.3911C147.389 20.9284 146.915 21.3632 146.265 21.7003C145.615 22.0374 144.946 22.2035 144.267 22.2035C143.378 22.2035 142.586 21.9885 141.898 21.5586C141.209 21.1287 140.667 20.523 140.276 19.7364C139.885 18.9548 139.689 18.0315 139.689 16.9714C139.689 15.9113 139.885 14.9928 140.276 14.2063C140.667 13.4198 141.204 12.814 141.898 12.3841C142.586 11.9542 143.378 11.7393 144.267 11.7393C144.951 11.7393 145.62 11.9054 146.265 12.2424C146.915 12.5795 147.389 13.0143 147.692 13.5517V11.9444H149.025V26.0189H147.692V20.3862V20.3911ZM144.409 21.0945C145.122 21.0945 145.723 20.9089 146.216 20.5327C146.71 20.1566 147.081 19.6583 147.325 19.033C147.569 18.4076 147.696 17.7237 147.696 16.9714C147.696 16.219 147.574 15.5351 147.325 14.9098C147.081 14.2845 146.71 13.7862 146.216 13.41C145.723 13.0339 145.122 12.8482 144.409 12.8482H144.306C143.607 12.8482 143.011 13.0339 142.518 13.41C142.025 13.7862 141.658 14.2845 141.409 14.9098C141.16 15.5351 141.038 16.219 141.038 16.9714C141.038 18.139 141.321 19.116 141.888 19.9074C142.455 20.6988 143.261 21.0945 144.301 21.0945H144.404H144.409Z" fill="#113E53"/>
<path d="M94.5059 45.9361V31.8617H100.251C101.086 31.8617 101.844 32.0229 102.527 32.3453C103.211 32.6677 103.754 33.1416 104.159 33.7718C104.56 34.402 104.765 35.1543 104.765 36.0239C104.765 36.8935 104.565 37.6409 104.159 38.2662C103.754 38.8916 103.211 39.3605 102.527 39.6732C101.844 39.9859 101.081 40.1471 100.251 40.1471H95.9421V45.9361H94.5059ZM99.9432 38.8378C100.984 38.8378 101.809 38.5984 102.415 38.1246C103.021 37.6507 103.329 36.9472 103.329 36.0239C103.329 35.1006 103.026 34.3922 102.415 33.9037C101.804 33.4152 100.984 33.1709 99.9432 33.1709H95.9421V38.8427H99.9432V38.8378Z" fill="#113E53"/>
<path d="M107.466 45.9361V31.8617H108.8V37.5921C109.157 36.9863 109.65 36.5173 110.275 36.1851C110.906 35.848 111.643 35.6819 112.493 35.6819C113.231 35.6819 113.861 35.8383 114.389 36.146C114.916 36.4538 115.312 36.8788 115.581 37.4211C115.849 37.9634 115.981 38.5887 115.981 39.3019V45.9361H114.648V39.7025C114.648 39.0577 114.555 38.5203 114.369 38.0855C114.184 37.6507 113.91 37.3234 113.548 37.1084C113.187 36.8935 112.733 36.786 112.185 36.786H111.98C111.448 36.786 110.935 36.9374 110.441 37.2403C109.948 37.5432 109.552 37.9731 109.254 38.5398C108.951 39.1016 108.8 39.7611 108.8 40.5086V45.9361H107.466Z" fill="#113E53"/>
<path d="M122.215 46.1364C121.614 46.1364 121.067 46.0045 120.574 45.7456C120.08 45.4867 119.689 45.13 119.406 44.6806C119.118 44.2311 118.976 43.7231 118.976 43.1613C118.976 42.4773 119.152 41.9204 119.499 41.4807C119.846 41.046 120.285 40.7235 120.813 40.5135C121.341 40.3083 121.902 40.1813 122.503 40.1422L125.747 39.9028V39.5022C125.747 38.9257 125.644 38.4372 125.439 38.0366C125.234 37.636 124.936 37.3283 124.545 37.1133C124.154 36.8984 123.7 36.7909 123.182 36.7909H123.08C122.396 36.7909 121.814 36.957 121.336 37.2843C120.857 37.6116 120.583 38.0855 120.515 38.701H119.181C119.235 37.8021 119.631 37.0742 120.368 36.5173C121.106 35.9604 122.024 35.6819 123.119 35.6819C123.983 35.6819 124.706 35.8529 125.302 36.1949C125.898 36.5369 126.343 36.9961 126.636 37.5725C126.929 38.149 127.076 38.7938 127.076 39.5022V43.7231C127.076 44.1774 127.086 44.534 127.095 44.7881C127.095 44.9737 127.1 45.1691 127.115 45.3596C127.13 45.5551 127.149 45.7456 127.174 45.9312H125.942C125.913 45.8091 125.898 45.687 125.889 45.5599C125.879 45.4329 125.869 45.301 125.859 45.1691C125.845 45.0226 125.84 44.876 125.84 44.7392V44.3288C125.62 44.8271 125.175 45.2522 124.506 45.6039C123.837 45.9605 123.07 46.1364 122.21 46.1364H122.215ZM122.562 45.0323C123.041 45.0323 123.524 44.9102 124.018 44.661C124.511 44.4119 124.921 44.0797 125.249 43.6547C125.576 43.2297 125.742 42.7851 125.742 42.3161V40.9678L122.767 41.1681C122.029 41.2218 121.433 41.4172 120.984 41.7494C120.53 42.0865 120.305 42.5262 120.305 43.0782C120.305 43.6303 120.5 44.0895 120.891 44.4656C121.282 44.8418 121.77 45.0274 122.357 45.0274H122.562V45.0323Z" fill="#113E53"/>
<path d="M130.574 45.9361V35.8822H131.805V38.1734C132.034 37.3967 132.44 36.8007 133.016 36.3952C133.593 35.9897 134.247 35.7796 134.985 35.7796H135.908V36.9863H135.088C134.101 36.9863 133.324 37.3478 132.757 38.0708C132.191 38.7939 131.907 39.7856 131.907 41.046V45.9312H130.574V45.9361Z" fill="#113E53"/>
<path d="M138.366 45.9361V35.8822H139.699V37.4895C140.027 36.9423 140.481 36.5027 141.062 36.1705C141.644 35.8432 142.318 35.6771 143.085 35.6771C143.852 35.6771 144.521 35.8578 145.098 36.2193C145.674 36.5808 146.084 37.1035 146.329 37.7875C146.685 37.1035 147.174 36.5808 147.794 36.2193C148.42 35.8578 149.138 35.6771 149.958 35.6771C150.628 35.6771 151.229 35.8187 151.756 36.0972C152.279 36.3805 152.694 36.7958 152.997 37.3527C153.3 37.9096 153.451 38.574 153.451 39.3557V45.9312H152.118V39.7562C152.118 38.7499 151.922 38.0024 151.531 37.5139C151.141 37.0254 150.55 36.7811 149.758 36.7811H149.636C148.981 36.7811 148.42 36.9668 147.951 37.3429C147.487 37.7191 147.14 38.2174 146.915 38.8427C146.69 39.468 146.578 40.152 146.578 40.9043V45.9312H145.244V39.7562C145.244 38.7499 145.049 38.0024 144.658 37.5139C144.267 37.0254 143.676 36.7811 142.885 36.7811H142.762C142.108 36.7811 141.546 36.9668 141.077 37.3429C140.613 37.7191 140.266 38.2174 140.041 38.8427C139.817 39.468 139.704 40.152 139.704 40.9043V45.9312H138.371L138.366 45.9361Z" fill="#113E53"/>
<path d="M159.675 46.1364C159.074 46.1364 158.527 46.0045 158.034 45.7456C157.54 45.4867 157.149 45.13 156.866 44.6806C156.578 44.2311 156.436 43.7231 156.436 43.1613C156.436 42.4773 156.612 41.9204 156.959 41.4807C157.306 41.046 157.745 40.7235 158.273 40.5135C158.801 40.3083 159.362 40.1813 159.963 40.1422L163.207 39.9028V39.5022C163.207 38.9257 163.104 38.4372 162.899 38.0366C162.694 37.636 162.396 37.3283 162.005 37.1133C161.614 36.8984 161.16 36.7909 160.642 36.7909H160.54C159.856 36.7909 159.274 36.957 158.796 37.2843C158.317 37.6116 158.043 38.0855 157.975 38.701H156.641C156.695 37.8021 157.091 37.0742 157.828 36.5173C158.566 35.9604 159.484 35.6819 160.579 35.6819C161.443 35.6819 162.166 35.8529 162.762 36.1949C163.358 36.5369 163.803 36.9961 164.096 37.5725C164.389 38.149 164.536 38.7938 164.536 39.5022V43.7231C164.536 44.1774 164.546 44.534 164.555 44.7881C164.555 44.9737 164.56 45.1691 164.575 45.3596C164.59 45.5551 164.609 45.7456 164.634 45.9312H163.402C163.373 45.8091 163.358 45.687 163.349 45.5599C163.339 45.4329 163.329 45.301 163.319 45.1691C163.305 45.0226 163.3 44.876 163.3 44.7392V44.3288C163.08 44.8271 162.635 45.2522 161.966 45.6039C161.297 45.9605 160.53 46.1364 159.67 46.1364H159.675ZM160.027 45.0323C160.505 45.0323 160.989 44.9102 161.483 44.661C161.976 44.4119 162.386 44.0797 162.714 43.6547C163.041 43.2297 163.207 42.7851 163.207 42.3161V40.9678L160.232 41.1681C159.494 41.2218 158.898 41.4172 158.449 41.7494C157.994 42.0865 157.77 42.5262 157.77 43.0782C157.77 43.6303 157.965 44.0895 158.356 44.4656C158.747 44.8418 159.235 45.0274 159.822 45.0274H160.027V45.0323Z" fill="#113E53"/>
<path d="M172.181 46.1364C171.194 46.1364 170.349 45.9068 169.636 45.4525C168.923 44.9981 168.385 44.3728 168.014 43.5814C167.643 42.79 167.457 41.9009 167.457 40.9092C167.457 39.9175 167.643 39.0283 168.014 38.2369C168.38 37.4455 168.923 36.8251 169.636 36.3659C170.349 35.9067 171.194 35.6819 172.181 35.6819C172.919 35.6819 173.578 35.8187 174.16 36.0923C174.741 36.3659 175.205 36.7616 175.557 37.2794C175.904 37.7973 176.114 38.403 176.182 39.1016H174.848C174.741 38.4177 174.453 37.8608 173.984 37.4309C173.52 37.001 172.953 36.786 172.284 36.786H172.078C171.365 36.786 170.764 36.9716 170.271 37.3478C169.778 37.724 169.411 38.2223 169.162 38.8476C168.918 39.4729 168.791 40.1568 168.791 40.9092C168.791 42.0914 169.069 43.0685 169.631 43.855C170.193 44.6366 171.004 45.0323 172.074 45.0323H172.279C172.933 45.0323 173.49 44.8125 173.95 44.3777C174.409 43.9429 174.707 43.3909 174.844 42.7167H176.177C175.987 43.7768 175.542 44.6122 174.853 45.218C174.165 45.8237 173.27 46.1315 172.176 46.1315L172.181 46.1364Z" fill="#113E53"/>
<path d="M183.144 46.1364C182.269 46.1364 181.488 45.9361 180.794 45.5355C180.1 45.1349 179.558 44.5389 179.162 43.7475C178.767 42.9561 178.566 42.0035 178.566 40.8945C178.566 39.7856 178.776 38.8134 179.201 38.0269C179.627 37.2403 180.183 36.6541 180.872 36.2682C181.561 35.8822 182.318 35.6868 183.139 35.6868C183.96 35.6868 184.683 35.8822 185.313 36.2779C185.943 36.6736 186.427 37.211 186.769 37.895C187.111 38.5789 187.282 39.3508 187.282 40.2057V41.0118H179.895C179.91 41.9253 180.061 42.6776 180.359 43.2736C180.652 43.8696 181.038 44.3142 181.522 44.6024C182.001 44.8907 182.533 45.0323 183.119 45.0323H183.242C183.94 45.0323 184.512 44.8711 184.966 44.5487C185.42 44.2263 185.738 43.7329 185.928 43.0587H187.262C187.042 44.0504 186.568 44.8125 185.836 45.3401C185.103 45.8677 184.204 46.1315 183.139 46.1315L183.144 46.1364ZM185.953 39.9028C185.929 38.9893 185.665 38.2418 185.162 37.6605C184.658 37.0791 184.018 36.786 183.222 36.786H183.017C182.265 36.786 181.595 37.0303 181.014 37.5188C180.433 38.0073 180.071 38.8036 179.939 39.9028H185.948H185.953Z" fill="#113E53"/>
<path d="M193.828 46.1364C193.09 46.1364 192.455 45.9801 191.918 45.6723C191.385 45.3645 190.975 44.9395 190.697 44.3972C190.418 43.855 190.276 43.2297 190.276 42.5164V35.8822H191.61V42.1158C191.61 43.0831 191.815 43.8061 192.226 44.2995C192.636 44.7881 193.252 45.0323 194.072 45.0323H194.277C194.785 45.0323 195.264 44.8809 195.723 44.578C196.183 44.2751 196.549 43.8452 196.832 43.2785C197.111 42.7167 197.253 42.0572 197.253 41.3098V35.8822H198.586V45.9361H197.253V44.0455C196.979 44.7148 196.549 45.2326 195.958 45.5941C195.372 45.9556 194.658 46.1364 193.823 46.1364H193.828Z" fill="#113E53"/>
<path d="M205.333 45.9361C204.663 45.9361 204.17 45.7944 203.857 45.516C203.545 45.2375 203.388 44.7734 203.388 44.1286V36.9912H201.029V35.8871H203.388V32.6287H204.722V35.8871H207.287V36.9912H204.722V44.0309C204.722 44.324 204.786 44.534 204.908 44.6562C205.03 44.7783 205.245 44.8369 205.543 44.8369H207.595V45.941H205.338L205.333 45.9361Z" fill="#113E53"/>
<path d="M209.979 34.0698V32.36H211.517V34.0698H209.979ZM210.081 45.9361V35.8822H211.415V45.9361H210.081Z" fill="#113E53"/>
<path d="M219.173 46.1364C218.186 46.1364 217.341 45.9068 216.628 45.4525C215.914 44.9981 215.377 44.3728 215.006 43.5814C214.639 42.79 214.454 41.9009 214.454 40.9092C214.454 39.9175 214.639 39.0283 215.006 38.2369C215.377 37.4455 215.914 36.8251 216.628 36.3659C217.336 35.9115 218.186 35.6819 219.173 35.6819C219.91 35.6819 220.57 35.8187 221.151 36.0923C221.733 36.3659 222.197 36.7616 222.548 37.2794C222.895 37.7973 223.105 38.403 223.174 39.1016H221.84C221.728 38.4177 221.444 37.8608 220.975 37.4309C220.511 37.001 219.945 36.786 219.275 36.786H219.07C218.357 36.786 217.756 36.9716 217.263 37.3478C216.769 37.724 216.398 38.2223 216.154 38.8476C215.909 39.4729 215.787 40.1568 215.787 40.9092C215.787 42.0914 216.066 43.0685 216.628 43.855C217.184 44.6366 218 45.0323 219.07 45.0323H219.275C219.93 45.0323 220.487 44.8125 220.946 44.3777C221.405 43.9429 221.703 43.3909 221.84 42.7167H223.174C222.983 43.7768 222.544 44.6122 221.85 45.218C221.156 45.8237 220.267 46.1315 219.173 46.1315V46.1364Z" fill="#113E53"/>
<path d="M228.87 46.1364C228.269 46.1364 227.722 46.0045 227.228 45.7456C226.735 45.4867 226.349 45.13 226.061 44.6806C225.773 44.2311 225.631 43.7231 225.631 43.1613C225.631 42.4773 225.807 41.9204 226.154 41.4807C226.5 41.046 226.94 40.7235 227.468 40.5135C227.995 40.3083 228.557 40.1813 229.158 40.1422L232.402 39.9028V39.5022C232.402 38.9257 232.299 38.4372 232.094 38.0366C231.889 37.636 231.591 37.3283 231.205 37.1133C230.814 36.8984 230.36 36.7909 229.842 36.7909H229.739C229.055 36.7909 228.474 36.957 227.995 37.2843C227.517 37.6116 227.243 38.0855 227.175 38.701H225.841C225.895 37.8021 226.295 37.0742 227.033 36.5173C227.771 35.9604 228.689 35.6819 229.783 35.6819C230.643 35.6819 231.371 35.8529 231.967 36.1949C232.558 36.5369 233.003 36.9961 233.301 37.5725C233.599 38.149 233.745 38.7938 233.745 39.5022V43.7231C233.745 44.1774 233.75 44.534 233.765 44.7881C233.765 44.9737 233.775 45.1691 233.784 45.3596C233.794 45.5502 233.819 45.7456 233.843 45.9312H232.612C232.587 45.8091 232.568 45.687 232.558 45.5599C232.553 45.4329 232.539 45.301 232.529 45.1691C232.514 45.0226 232.509 44.876 232.509 44.7392V44.3288C232.289 44.8271 231.845 45.2522 231.176 45.6039C230.501 45.9605 229.739 46.1364 228.875 46.1364H228.87ZM229.222 45.0323C229.7 45.0323 230.189 44.9102 230.677 44.661C231.166 44.4119 231.581 44.0797 231.908 43.6547C232.236 43.2297 232.402 42.7851 232.402 42.3161V40.9678L229.427 41.1681C228.689 41.2218 228.093 41.4172 227.639 41.7494C227.189 42.0865 226.96 42.5262 226.96 43.0782C226.96 43.6303 227.155 44.0895 227.546 44.4656C227.937 44.8418 228.425 45.0274 229.011 45.0274H229.217L229.222 45.0323Z" fill="#113E53"/>
<path d="M237.238 45.9361V31.8617H238.572V45.9361H237.238Z" fill="#113E53"/>
<path d="M99.5326 70.0742C98.3699 70.0742 97.3733 69.8934 96.5477 69.5319C95.7221 69.1704 95.087 68.6428 94.6522 67.954C94.2125 67.2652 93.9976 66.4298 93.9976 65.4527H95.4338C95.4338 66.4982 95.81 67.314 96.5525 67.8954C97.3 68.4767 98.2868 68.7698 99.5179 68.7698H99.7231C100.788 68.7698 101.619 68.5207 102.215 68.0273C102.811 67.5339 103.109 66.9085 103.109 66.1562C103.109 65.5114 102.889 64.9984 102.454 64.6076C102.014 64.2216 101.345 63.9334 100.441 63.7429L98.1451 63.2788C97.0215 63.0492 96.1715 62.6388 95.5902 62.0428C95.0088 61.4468 94.7157 60.6407 94.7157 59.6197C94.7157 58.8821 94.916 58.203 95.3215 57.5875C95.7269 56.9719 96.2985 56.4834 97.046 56.1317C97.7885 55.775 98.6581 55.5992 99.64 55.5992C100.622 55.5992 101.536 55.775 102.298 56.1219C103.055 56.4687 103.651 56.9719 104.081 57.6217C104.511 58.2714 104.74 59.0384 104.77 59.9226H103.333C103.28 59.0091 102.918 58.2812 102.259 57.7291C101.594 57.182 100.759 56.9035 99.7426 56.9035H99.5374C98.8828 56.9035 98.2966 57.0208 97.7836 57.2553C97.2707 57.4898 96.8701 57.8122 96.5819 58.2225C96.2936 58.6329 96.152 59.0921 96.152 59.6002C96.152 60.2157 96.362 60.714 96.7773 61.0902C97.1925 61.4664 97.7788 61.7253 98.5311 61.8767L100.827 62.3213C102.029 62.5607 102.952 62.9906 103.587 63.6061C104.222 64.2216 104.54 65.0473 104.54 66.078C104.54 66.8939 104.34 67.6071 103.934 68.208C103.534 68.8089 102.947 69.273 102.19 69.5954C101.433 69.9179 100.544 70.0791 99.5326 70.0791V70.0742Z" fill="#113E53"/>
<path d="M111.79 70.0742C110.915 70.0742 110.134 69.8739 109.44 69.4733C108.746 69.0727 108.204 68.4767 107.808 67.6853C107.413 66.8939 107.212 65.9413 107.212 64.8323C107.212 63.7234 107.422 62.7512 107.847 61.9647C108.272 61.1781 108.829 60.5919 109.518 60.206C110.207 59.82 110.964 59.6246 111.785 59.6246C112.606 59.6246 113.329 59.82 113.959 60.2157C114.589 60.6114 115.073 61.1488 115.415 61.8328C115.757 62.5167 115.928 63.2886 115.928 64.1435V64.9495H108.541C108.556 65.8631 108.707 66.6154 109.005 67.2114C109.298 67.8074 109.684 68.252 110.168 68.5402C110.647 68.8285 111.179 68.9701 111.765 68.9701H111.888C112.586 68.9701 113.158 68.8089 113.612 68.4865C114.066 68.1641 114.384 67.6706 114.574 66.9965H115.908C115.688 67.9882 115.214 68.7503 114.482 69.2779C113.749 69.8055 112.85 70.0693 111.785 70.0693L111.79 70.0742ZM114.599 63.8406C114.574 62.927 114.311 62.1796 113.808 61.5983C113.304 61.0169 112.664 60.7238 111.868 60.7238H111.663C110.911 60.7238 110.241 60.9681 109.66 61.4566C109.079 61.9451 108.717 62.7414 108.585 63.8406H114.594H114.599Z" fill="#113E53"/>
<path d="M119.035 69.8739V59.82H120.266V62.1112C120.495 61.3345 120.901 60.7385 121.477 60.333C122.054 59.9275 122.708 59.7174 123.446 59.7174H124.369V60.9241H123.549C122.562 60.9241 121.785 61.2856 121.218 62.0086C120.652 62.7316 120.368 63.7234 120.368 64.9838V69.869H119.035V69.8739Z" fill="#113E53"/>
<path d="M130.153 69.8739L126.216 59.82H127.628L131.199 69.229H130.788L134.36 59.82H135.757L131.819 69.8739H130.158H130.153Z" fill="#113E53"/>
<path d="M138.131 58.0076V56.2977H139.67V58.0076H138.131ZM138.233 69.8739V59.82H139.567V69.8739H138.233Z" fill="#113E53"/>
<path d="M147.325 70.0742C146.338 70.0742 145.493 69.8446 144.78 69.3903C144.067 68.9359 143.529 68.3106 143.158 67.5192C142.792 66.7278 142.606 65.8387 142.606 64.847C142.606 63.8553 142.792 62.9661 143.158 62.1747C143.529 61.3833 144.067 60.7629 144.78 60.3037C145.488 59.8493 146.338 59.6197 147.325 59.6197C148.063 59.6197 148.722 59.7565 149.304 60.0301C149.885 60.3037 150.349 60.6994 150.701 61.2172C151.048 61.735 151.258 62.3408 151.326 63.0394H149.992C149.88 62.3555 149.597 61.7986 149.128 61.3687C148.664 60.9388 148.097 60.7238 147.428 60.7238H147.223C146.509 60.7238 145.908 60.9094 145.415 61.2856C144.922 61.6618 144.55 62.1601 144.306 62.7854C144.062 63.4107 143.94 64.0946 143.94 64.847C143.94 66.0292 144.218 67.0063 144.78 67.7928C145.337 68.5744 146.153 68.9701 147.223 68.9701H147.428C148.082 68.9701 148.639 68.7503 149.098 68.3155C149.558 67.8807 149.856 67.3287 149.992 66.6545H151.326C151.136 67.7146 150.696 68.55 150.002 69.1558C149.309 69.7615 148.419 70.0693 147.325 70.0693V70.0742Z" fill="#113E53"/>
<path d="M158.287 70.0742C157.413 70.0742 156.626 69.8739 155.938 69.4733C155.249 69.0727 154.702 68.4767 154.306 67.6853C153.91 66.8939 153.71 65.9413 153.71 64.8323C153.71 63.7234 153.92 62.7512 154.345 61.9647C154.77 61.1781 155.327 60.5919 156.016 60.206C156.705 59.82 157.462 59.6246 158.283 59.6246C159.103 59.6246 159.826 59.82 160.457 60.2157C161.087 60.6114 161.57 61.1488 161.912 61.8328C162.254 62.5167 162.425 63.2886 162.425 64.1435V64.9495H155.039C155.053 65.8631 155.205 66.6154 155.503 67.2114C155.796 67.8074 156.182 68.252 156.661 68.5402C157.139 68.8285 157.672 68.9701 158.263 68.9701H158.385C159.084 68.9701 159.66 68.8089 160.11 68.4865C160.564 68.1641 160.882 67.6706 161.077 66.9965H162.411C162.191 67.9882 161.717 68.7503 160.984 69.2779C160.251 69.8055 159.352 70.0693 158.287 70.0693V70.0742ZM161.096 63.8406C161.067 62.927 160.803 62.1796 160.305 61.5983C159.807 61.0169 159.157 60.7238 158.366 60.7238H158.16C157.408 60.7238 156.739 60.9681 156.162 61.4566C155.581 61.9451 155.22 62.7414 155.083 63.8406H161.096Z" fill="#113E53"/>
<path d="M168.913 70.0742C167.643 70.0742 166.656 69.7811 165.958 69.19C165.259 68.5989 164.883 67.8221 164.829 66.8597H166.163C166.231 67.529 166.51 68.0517 166.993 68.4181C167.477 68.7845 168.083 68.9701 168.806 68.9701H169.011C169.724 68.9701 170.286 68.8089 170.701 68.4767C171.121 68.1494 171.327 67.7097 171.327 67.1577C171.327 66.7571 171.195 66.4347 170.926 66.1904C170.662 65.951 170.193 65.7556 169.519 65.6091L168.019 65.2866C167.154 65.101 166.475 64.7981 165.977 64.3829C165.479 63.9676 165.23 63.3667 165.23 62.5704C165.23 61.9549 165.396 61.4224 165.733 60.9827C166.07 60.5382 166.515 60.2011 167.076 59.9666C167.638 59.7321 168.244 59.6148 168.903 59.6148C170.105 59.6148 171.038 59.9275 171.693 60.5479C172.348 61.1732 172.704 61.9305 172.758 62.8294H171.424C171.356 62.2382 171.107 61.7399 170.672 61.3296C170.242 60.9192 169.685 60.7189 169.001 60.7189H168.796C168.112 60.7189 167.57 60.8899 167.164 61.2319C166.759 61.5738 166.558 61.9793 166.558 62.4483C166.558 62.8929 166.7 63.2348 166.988 63.4742C167.277 63.7136 167.755 63.909 168.425 64.0556L170.027 64.3975C170.848 64.5734 171.493 64.8616 171.957 65.2622C172.421 65.6628 172.655 66.2588 172.655 67.0502C172.655 67.6804 172.499 68.2178 172.191 68.6672C171.883 69.1167 171.444 69.4635 170.877 69.7029C170.31 69.9423 169.646 70.0644 168.899 70.0644L168.913 70.0742Z" fill="#113E53"/>
<path d="M41.2072 0C18.4468 0 0 18.4516 0 41.2072C0 63.9627 18.4468 82.4144 41.2072 82.4144C47.6753 82.4144 53.7916 80.9195 59.2338 78.2668V96.9334H82.4144V41.2023C82.4144 18.4516 63.9676 0 41.2072 0ZM41.2072 59.2338C31.251 59.2338 23.1806 51.1634 23.1806 41.2072C23.1806 31.251 31.251 23.1806 41.2072 23.1806C51.1634 23.1806 59.2338 31.251 59.2338 41.2072C59.2338 51.1634 51.1634 59.2338 41.2072 59.2338Z" fill="#113E53"/>
<path d="M110.109 87.3778C110.109 92.7321 105.771 97.0702 100.416 97.0702C95.0622 97.0702 90.7241 92.7321 90.7241 87.3778C90.7241 82.0236 95.0622 77.6855 100.416 77.6855C105.771 77.6855 110.109 82.0236 110.109 87.3778Z" fill="#113E53"/>
</svg>
